<svg width="28" height="24" viewBox="0 0 28 24" fill="none" xmlns="http://www.w3.org/2000/svg">
<g clip-path="url(#clip0_199_340)">
<path d="M4.41144 24H23.6026C26.5388 24 28 22.6456 28 19.963V4.06292C28 1.38034 26.5388 0.0260315 23.6026 0.0260315H4.41144C1.47516 0.0260315 0 1.36732 0 4.06292V19.963C0 22.6586 1.47516 24 4.41144 24ZM4.2007 21.9033C2.95033 21.9033 2.26192 21.2914 2.26192 20.0802V7.80029C2.26192 6.60226 2.95033 5.97719 4.2007 5.97719H23.7852C25.0356 5.97719 25.7381 6.60226 25.7381 7.80029V20.0802C25.7381 21.2914 25.0356 21.9033 23.7852 21.9033H4.2007ZM11.2674 10.6522H12.0963C12.588 10.6522 12.7426 10.5219 12.7426 10.0662V9.29786C12.7426 8.84207 12.588 8.69882 12.0963 8.69882H11.2674C10.7757 8.69882 10.6071 8.84207 10.6071 9.29786V10.0662C10.6071 10.5219 10.7757 10.6522 11.2674 10.6522ZM15.9318 10.6522H16.7607C17.2523 10.6522 17.4209 10.5219 17.4209 10.0662V9.29786C17.4209 8.84207 17.2523 8.69882 16.7607 8.69882H15.9318C15.44 8.69882 15.2715 8.84207 15.2715 9.29786V10.0662C15.2715 10.5219 15.44 10.6522 15.9318 10.6522ZM20.5961 10.6522H21.425C21.9166 10.6522 22.0853 10.5219 22.0853 10.0662V9.29786C22.0853 8.84207 21.9166 8.69882 21.425 8.69882H20.5961C20.1043 8.69882 19.9498 8.84207 19.9498 9.29786V10.0662C19.9498 10.5219 20.1043 10.6522 20.5961 10.6522ZM6.6031 14.9105H7.41795C7.92373 14.9105 8.07826 14.7802 8.07826 14.3244V13.5561C8.07826 13.1004 7.92373 12.9701 7.41795 12.9701H6.6031C6.09734 12.9701 5.94279 13.1004 5.94279 13.5561V14.3244C5.94279 14.7802 6.09734 14.9105 6.6031 14.9105ZM11.2674 14.9105H12.0963C12.588 14.9105 12.7426 14.7802 12.7426 14.3244V13.5561C12.7426 13.1004 12.588 12.9701 12.0963 12.9701H11.2674C10.7757 12.9701 10.6071 13.1004 10.6071 13.5561V14.3244C10.6071 14.7802 10.7757 14.9105 11.2674 14.9105ZM15.9318 14.9105H16.7607C17.2523 14.9105 17.4209 14.7802 17.4209 14.3244V13.5561C17.4209 13.1004 17.2523 12.9701 16.7607 12.9701H15.9318C15.44 12.9701 15.2715 13.1004 15.2715 13.5561V14.3244C15.2715 14.7802 15.44 14.9105 15.9318 14.9105ZM20.5961 14.9105H21.425C21.9166 14.9105 22.0853 14.7802 22.0853 14.3244V13.5561C22.0853 13.1004 21.9166 12.9701 21.425 12.9701H20.5961C20.1043 12.9701 19.9498 13.1004 19.9498 13.5561V14.3244C19.9498 14.7802 20.1043 14.9105 20.5961 14.9105ZM6.6031 19.1817H7.41795C7.92373 19.1817 8.07826 19.0385 8.07826 18.5827V17.8143C8.07826 17.3586 7.92373 17.2284 7.41795 17.2284H6.6031C6.09734 17.2284 5.94279 17.3586 5.94279 17.8143V18.5827C5.94279 19.0385 6.09734 19.1817 6.6031 19.1817ZM11.2674 19.1817H12.0963C12.588 19.1817 12.7426 19.0385 12.7426 18.5827V17.8143C12.7426 17.3586 12.588 17.2284 12.0963 17.2284H11.2674C10.7757 17.2284 10.6071 17.3586 10.6071 17.8143V18.5827C10.6071 19.0385 10.7757 19.1817 11.2674 19.1817ZM15.9318 19.1817H16.7607C17.2523 19.1817 17.4209 19.0385 17.4209 18.5827V17.8143C17.4209 17.3586 17.2523 17.2284 16.7607 17.2284H15.9318C15.44 17.2284 15.2715 17.3586 15.2715 17.8143V18.5827C15.2715 19.0385 15.44 19.1817 15.9318 19.1817Z" fill="white"/>
</g>
<defs>
<clipPath id="clip0_199_340">
<rect width="28" height="24" fill="white"/>
</clipPath>
</defs>
</svg>
