<svg width="27" height="26" viewBox="0 0 27 26" fill="none" xmlns="http://www.w3.org/2000/svg">
<g clip-path="url(#clip0_199_332)">
<path d="M10.2367 22.8811H16.7633V14.5408C16.7633 14.0139 16.4239 13.6702 15.9037 13.6702H11.1076C10.576 13.6702 10.2367 14.0139 10.2367 14.5408V22.8811ZM5.81399 24.061H21.1181C22.7243 24.061 23.6631 23.1331 23.6631 21.5292V8.87002L21.842 7.60983V21.0595C21.842 21.8041 21.4462 22.2166 20.7336 22.2166H6.19857C5.47465 22.2166 5.07875 21.8041 5.07875 21.0595V7.62128L3.25764 8.87002V21.5292C3.25764 23.1331 4.19648 24.061 5.81399 24.061ZM0 11.3102C0 11.7799 0.36196 12.2267 0.972765 12.2267C1.28949 12.2267 1.54964 12.0549 1.78718 11.8601L13.1097 2.23684C13.3585 2.00771 13.6639 2.00771 13.9129 2.23684L25.2354 11.8601C25.4616 12.0549 25.7218 12.2267 26.0385 12.2267C26.5701 12.2267 27 11.8945 27 11.3446C27 11.0009 26.8869 10.7718 26.6493 10.5655L14.8743 0.541309C14.0373 -0.180436 12.9966 -0.180436 12.1482 0.541309L0.36196 10.5655C0.113113 10.7718 0 11.0467 0 11.3102ZM20.824 6.14342L23.6631 8.57215V3.27936C23.6631 2.77528 23.3464 2.4545 22.8488 2.4545H21.6385C21.1521 2.4545 20.824 2.77528 20.824 3.27936V6.14342Z" fill="white"/>
</g>
<defs>
<clipPath id="clip0_199_332">
<rect width="27" height="26" fill="white"/>
</clipPath>
</defs>
</svg>
