<svg width="28" height="25" viewBox="0 0 28 25" fill="none" xmlns="http://www.w3.org/2000/svg">
<g clip-path="url(#clip0_199_344)">
<path d="M13.9531 24.9062C20.4922 24.9062 25.9062 19.4805 25.9062 12.9531C25.9062 6.41406 20.4805 1 13.9414 1C7.41406 1 2 6.41406 2 12.9531C2 19.4805 7.42578 24.9062 13.9531 24.9062ZM13.9531 22.9141C8.42188 22.9141 4.00391 18.4844 4.00391 12.9531C4.00391 7.42188 8.41016 2.99219 13.9414 2.99219C19.4727 2.99219 23.9141 7.42188 23.9141 12.9531C23.9141 18.4844 19.4844 22.9141 13.9531 22.9141Z" fill="white"/>
<path d="M11.5039 8.05469C11.5039 9.16797 12.2539 10.1172 13.2852 10.4102V14.3828C13.2852 16.2227 13.6016 17.2773 13.9414 17.2773C14.293 17.2773 14.6094 16.2461 14.6094 14.3828V10.4102C15.6289 10.1172 16.3789 9.16797 16.3789 8.05469C16.3789 6.70703 15.3008 5.61719 13.9414 5.61719C12.582 5.61719 11.5039 6.70703 11.5039 8.05469ZM13.2617 8.16016C12.8633 8.16016 12.4766 7.80859 12.4766 7.375C12.4766 6.94141 12.8633 6.58984 13.2617 6.58984C13.707 6.58984 14.0586 6.94141 14.0586 7.375C14.0586 7.80859 13.707 8.16016 13.2617 8.16016ZM13.9414 19.5742C17.75 19.5742 19.9883 18.2383 19.9883 16.7969C19.9883 15.0391 17.1992 14.0195 15.4414 14.0312V15.1094C16.6602 15.0977 18.5703 15.7539 18.5703 16.6445C18.5703 17.6758 16.6367 18.4258 13.9414 18.4258C11.2344 18.4258 9.32422 17.6758 9.32422 16.6445C9.32422 15.7539 11.2227 15.0977 12.4414 15.1094V14.0312C10.6836 14.0195 7.89453 15.0391 7.89453 16.7969C7.89453 18.2383 10.1328 19.5742 13.9414 19.5742Z" fill="white"/>
</g>
<defs>
<clipPath id="clip0_199_344">
<rect width="23.9062" height="23.918" fill="white" transform="translate(2 1)"/>
</clipPath>
</defs>
</svg>
