<svg width="31" height="29" viewBox="0 0 31 29" fill="none" xmlns="http://www.w3.org/2000/svg">
<path d="M15.5 14.5C17.0416 14.5 18.52 13.9271 19.6101 12.9074C20.7001 11.8877 21.3125 10.5046 21.3125 9.0625C21.3125 7.62039 20.7001 6.23734 19.6101 5.21761C18.52 4.19788 17.0416 3.625 15.5 3.625C13.9584 3.625 12.48 4.19788 11.3899 5.21761C10.2999 6.23734 9.6875 7.62039 9.6875 9.0625C9.6875 10.5046 10.2999 11.8877 11.3899 12.9074C12.48 13.9271 13.9584 14.5 15.5 14.5ZM19.375 9.0625C19.375 10.0239 18.9667 10.9459 18.24 11.6258C17.5133 12.3056 16.5277 12.6875 15.5 12.6875C14.4723 12.6875 13.4867 12.3056 12.76 11.6258C12.0333 10.9459 11.625 10.0239 11.625 9.0625C11.625 8.10109 12.0333 7.17906 12.76 6.49924C13.4867 5.81942 14.4723 5.4375 15.5 5.4375C16.5277 5.4375 17.5133 5.81942 18.24 6.49924C18.9667 7.17906 19.375 8.10109 19.375 9.0625ZM27.125 23.5625C27.125 25.375 25.1875 25.375 25.1875 25.375H5.8125C5.8125 25.375 3.875 25.375 3.875 23.5625C3.875 21.75 5.8125 16.3125 15.5 16.3125C25.1875 16.3125 27.125 21.75 27.125 23.5625ZM25.1875 23.5553C25.1856 23.1094 24.8891 21.7681 23.5755 20.5392C22.3123 19.3575 19.9349 18.125 15.5 18.125C11.0631 18.125 8.68775 19.3575 7.4245 20.5392C6.11088 21.7681 5.81638 23.1094 5.8125 23.5553H25.1875Z" fill="white"/>
</svg>
